Coordinates
version=1
nRows=14
nColumns=40
inDegrees=yes

Units are S.I. units (second, meters, Newtons, ...)
Angles are in degrees.

endheader
time	pelvis_tilt	pelvis_list	pelvis_rotation	pelvis_tx	pelvis_ty	pelvis_tz	hip_flexion_r	hip_adduction_r	hip_rotation_r	knee_angle_r	knee_angle_r_beta	ankle_angle_r	subtalar_angle_r	mtp_angle_r	hip_flexion_l	hip_adduction_l	hip_rotation_l	knee_angle_l	knee_angle_l_beta	ankle_angle_l	subtalar_angle_l	mtp_angle_l	lumbar_extension	lumbar_bending	lumbar_rotation	arm_flex_r	arm_add_r	arm_rot_r	elbow_flex_r	pro_sup_r	wrist_flex_r	wrist_dev_r	arm_flex_l	arm_add_l	arm_rot_l	elbow_flex_l	pro_sup_l	wrist_flex_l	wrist_dev_l
     58.26750000	     -5.77564555	     -3.90944932	     -1.75090974	      0.98722180	      0.91691578	      0.48696354	     25.77981097	     -0.52564660	    -14.20066488	     21.73684597	     21.73684597	      4.02806598	     -0.37134832	     -2.56212896	      7.39654358	    -10.26360118	     -5.74750461	     40.27432124	     40.27432124	     12.03594332	    -14.42318985	     -9.21969543	    -11.45773466	      3.29168478	      2.74816162	    -11.33848972	    -11.40995338	     -7.29024452	     23.36797667	     46.56658620	      0.00000000	      0.00000000	     12.39969268	    -15.48180480	     -7.08046280	     99.28924307	     48.46102456	      0.00000000	      0.00000000
     58.27857143	     -5.73068278	     -4.09557530	     -1.47612190	      0.98724820	      0.91833943	      0.48955703	     24.93280343	     -0.23550757	    -14.62857895	     21.35704827	     21.35704827	      4.50111792	     -0.02874517	     -2.67551840	      9.45179570	    -10.81005211	     -4.72264014	     44.31154908	     44.31154908	     10.06365533	    -15.75985502	     -8.74965460	    -11.57866244	      3.40274967	      2.82739333	     -9.57306393	    -11.29724055	     -7.19829351	     24.08254587	     46.54471350	      0.00000000	      0.00000000	     11.19167219	    -14.81857034	     -6.79650007	     97.82703952	     48.40974651	      0.00000000	      0.00000000
     58.28964286	     -5.85378825	     -4.26522795	     -1.11756196	      0.98695958	      0.91944003	      0.49181927	     24.19956005	      0.01250758	    -15.17401760	     20.81371452	     20.81371452	      4.91893760	      0.45116173	     -2.81112963	     11.90425816	    -11.18212242	     -3.43098613	     48.43272069	     48.43272069	      8.32666602	    -16.97716704	     -7.62572962	    -11.45616695	      3.55810449	      2.73318820	     -7.81626506	    -11.24125690	     -7.09311522	     24.84877975	     46.51908087	      0.00000000	      0.00000000	      9.98079108	    -14.25091211	     -6.66438568	     95.65319772	     48.35462079	      0.00000000	      0.00000000
     58.30071429	     -5.89315922	     -4.31314816	     -0.77062179	      0.98644918	      0.92057557	      0.49366129	     23.43533529	      0.07097362	    -15.82674699	     20.35461513	     20.35461513	      5.23102161	      1.18250189	     -3.28352657	     14.51520042	    -11.20055319	     -2.03352213	     52.87475336	     52.87475336	      9.13065214	    -16.90356244	     -0.55220527	    -11.39794054	      3.64116433	      3.13142726	     -6.30914257	    -11.32843222	     -6.40648705	     25.79336621	     46.43516712	      0.00000000	      0.00000000	      9.73738318	    -13.01187962	     -6.65308016	     91.54050440	     48.29071032	      0.00000000	      0.00000000
     58.31178571	     -5.92040794	     -4.56455885	     -0.41709175	      0.98575448	      0.92149790	      0.49567445	     22.67526291	      0.42782845	    -16.27563227	     19.87794150	     19.87794150	      5.54642829	      1.43199735	     -3.35170751	     16.92682623	    -11.56227392	     -0.92540526	     56.53655207	     56.53655207	      7.71657580	    -17.49753084	     -0.04934664	    -11.49900894	      3.84434883	      3.19687351	     -4.31727846	    -11.36618499	     -6.37476629	     26.67376078	     46.41262376	      0.00000000	      0.00000000	      8.50200841	    -12.51101109	     -6.15480123	     89.97879875	     48.22325705	      0.00000000	      0.00000000
     58.32285714	     -6.03122651	     -4.72160928	     -0.03368707	      0.98487976	      0.92228555	      0.49734615	     21.96105509	      0.64826249	    -16.86190804	     19.28871946	     19.28871946	      5.72004973	      1.96965157	     -3.83474921	     19.61779142	    -11.58625219	      0.36448209	     60.28957352	     60.28957352	      8.40853891	    -17.34252966	      5.08318374	    -11.35054722	      4.02903705	      3.65775941	     -2.71212156	    -11.55147874	     -5.91384900	     27.74922398	     46.34129113	      0.00000000	      0.00000000	      8.41477033	    -11.66193876	     -5.65882731	     85.21303021	     48.11096743	      0.00000000	      0.00000000
     58.33392857	     -6.03862490	     -4.93030638	      0.33026088	      0.98396921	      0.92310872	      0.49902000	     21.17972070	      0.95798142	    -17.30583552	     18.76806971	     18.76806971	      5.99342817	      2.29075455	     -3.98782594	     21.99013751	    -11.74146036	      1.37039462	     63.32317196	     63.32317196	      7.80649122	    -17.53659517	      5.93591502	    -11.39691794	      4.21863017	      3.53927682	     -0.53786254	    -11.66751629	     -5.82703674	     28.75072050	     46.30946056	      0.00000000	      0.00000000	      7.49194422	    -11.24689752	     -5.26367849	     82.16210309	     48.02576789	      0.00000000	      0.00000000
     58.34500000	     -6.12236888	     -5.17497297	      0.68715264	      0.98290055	      0.92373361	      0.50061989	     20.47962267	      1.32250367	    -17.72870491	     18.19947734	     18.19947734	      6.20578564	      2.57634136	     -4.10879947	     24.44423909	    -11.89084732	      2.33038815	     66.02113825	     66.02113825	      7.46892384	    -17.62101748	      6.56052352	    -11.36336049	      4.44721321	      3.63943512	      1.60996053	    -11.81579348	     -5.72043221	     29.61755892	     46.28202360	      0.00000000	      0.00000000	      6.74123431	    -10.72186516	     -4.87550858	     78.87360426	     47.93444555	      0.00000000	      0.00000000
     58.35607143	     -6.10101334	     -5.40546304	      1.03774267	      0.98184883	      0.92445074	      0.50211929	     19.69843761	      1.67466573	    -18.11024119	     17.68936937	     17.68936937	      6.45532031	      2.84664669	     -4.37333769	     26.72190131	    -11.96428653	      3.23941609	     68.31352214	     68.31352214	      7.49059612	    -17.59356638	      7.48832147	    -11.39663274	      4.68058590	      4.10595503	      3.69145196	    -12.11773989	     -5.49644025	     30.30573381	     46.25224592	      0.00000000	      0.00000000	      6.62238876	     -9.92028930	     -4.43051619	     74.23262231	     47.81920924	      0.00000000	      0.00000000
     58.36714286	     -6.11857834	     -5.60042516	      1.32994695	      0.98069877	      0.92510229	      0.50349902	     18.96614981	      2.00899324	    -18.43738398	     17.15303381	     17.15303381	      6.56726191	      3.05703795	     -4.61729489	     28.95813980	    -12.02421186	      3.94101969	     70.17939633	     70.17939633	      7.66663098	    -17.53484098	      8.13696379	    -11.40759239	      4.84764588	      4.73841550	      5.69759283	    -12.51127321	     -5.30123812	     31.07043142	     46.21893177	      0.00000000	      0.00000000	      6.61309221	     -9.14540201	     -3.75811628	     69.52637869	     47.68627797	      0.00000000	      0.00000000
     58.37821429	     -6.10055442	     -5.76615690	      1.59946147	      0.97955799	      0.92579527	      0.50480906	     18.17883191	      2.33307416	    -18.69831775	     16.56762196	     16.56762196	      6.68788433	      3.28250209	     -4.73985405	     31.02529471	    -12.05755244	      4.51152273	     71.53953918	     71.53953918	      7.78658540	    -17.51231557	      8.15968004	    -11.48364796	      4.97725062	      4.94479375	      7.99411961	    -12.77164154	     -5.22309767	     32.02108378	     46.18869074	      0.00000000	      0.00000000	      6.08755912	     -8.73342848	     -3.18923031	     65.49144265	     47.57090043	      0.00000000	      0.00000000
     58.38928571	     -6.08192277	     -5.93902986	      1.90113563	      0.97846463	      0.92645109	      0.50600343	     17.36465382	      2.67592846	    -18.94560734	     15.94625205	     15.94625205	      6.93612264	      3.50496162	     -4.81631860	     33.01295693	    -12.09862264	      5.00787117	     72.44556058	     72.44556058	      7.77895682	    -17.49687526	      8.03813955	    -11.50386257	      5.10009842	      4.93167129	     10.46057707	    -12.96937729	     -5.18364174	     33.01348831	     46.16238785	      0.00000000	      0.00000000	      5.27431381	     -8.47515119	     -2.73429715	     62.00668776	     47.47220660	      0.00000000	      0.00000000
     58.40035714	     -6.03883314	     -6.04977483	      2.13539461	      0.97736131	      0.92715556	      0.50703313	     16.54493108	      2.94570867	    -19.16438604	     15.35560121	     15.35560121	      7.08221477	      3.79155493	     -5.06627809	     34.81578191	    -12.07951754	      5.33590684	     72.88230327	     72.88230327	      7.85918249	    -17.52135387	      7.97142349	    -11.56033663	      5.19642367	      5.72424894	     12.60847111	    -13.53496343	     -4.92522612	     33.56605270	     46.13378983	      0.00000000	      0.00000000	      5.67600303	     -7.68539411	     -2.20081807	     56.09705484	     47.33206273	      0.00000000	      0.00000000
     58.41142857	     -5.98596514	     -6.13527505	      2.37505429	      0.97631181	      0.92783329	      0.50792770	     15.67350928	      3.20833337	    -19.33560162	     14.68817738	     14.68817738	      7.28103770	      4.07087305	     -5.20550385	     36.46870517	    -12.03566935	      5.56287093	     72.87677031	     72.87677031	      7.93849575	    -17.56416984	      7.95731576	    -11.62327289	      5.24346024	      5.96481716	     14.93488211	    -13.89299277	     -4.85217951	     34.67588505	     46.09502763	      0.00000000	      0.00000000	      5.26530513	     -7.34415429	     -1.66751153	     51.78058937	     47.20751026	      0.00000000	      0.00000000
